# xmcd
#
# Track frame offsets: 
#        150
#        9115
#        25695
#        39480
#        50990
#        65217
#        79370
#        99200
#        112142
#        124052
#        143165
#        152902
#        166357
#        182262
#        202875
#        217717
#        246255
#        259777
#        273395
#        288112
#
# Disc length: 4057 seconds
#
# Revision: 5
# Processed by: cddbd v1.5.2PL0 Copyright (c) Steve Scherf et al.
# Submitted via: ExactAudioCopy v1.3
#
DISCID=150fd714
DTITLE=Ray Charles - Anthology
DYEAR=1988
DGENRE=R&B
TTITLE0=Hit The Road Jack
TTITLE1=Georgia On My Mind
TTITLE2=Let's Go Get Stoned
TTITLE3=I Don't Need No Doctor
TTITLE4=Hallelujah I Love Her So
TTITLE5=One Mint Julep
TTITLE6=That Luck Old Sun
TTITLE7=Unchain My Heart
TTITLE8=Don't Set Me Free
TTITLE9=I Can't Stop Loving You
TTITLE10=Busted
TTITLE11=Crying Time
TTITLE12=Cry
TTITLE13=What'd I Say
TTITLE14=Here We Go Again
TTITLE15=I Gotta Woman
TTITLE16=Eleanor Rigby
TTITLE17=You Are My Sunshine
TTITLE18=Born To Lose
TTITLE19=America, The Beautiful
EXTD=
EXTT0=
EXTT1=
EXTT2=
EXTT3=
EXTT4=
EXTT5=
EXTT6=
EXTT7=
EXTT8=
EXTT9=
EXTT10=
EXTT11=
EXTT12=
EXTT13=
EXTT14=
EXTT15=
EXTT16=
EXTT17=
EXTT18=
EXTT19=
PLAYORDER=
